<?xml version="1.0" encoding="UTF-8"?>
<!--
Copyright (C) 2009/2010/2011 Ulrich Apel.
This work is distributed under the conditions of the Creative Commons
Attribution-Share Alike 3.0 Licence. This means you are free:
* to Share - to copy, distribute and transmit the work
* to Remix - to adapt the work

Under the following conditions:
* Attribution. You must attribute the work by stating your use of KanjiVG in
  your own copyright header and linking to KanjiVG's website
  (http://kanjivg.tagaini.net)
* Share Alike. If you alter, transform, or build upon this work, you may
  distribute the resulting work only under the same or similar license to this
  one.

See http://creativecommons.org/licenses/by-sa/3.0/ for more details.
-->
<svg xmlns="http://www.w3.org/2000/svg" width="109" height="109" viewBox="0 0 109 109">
<g class="kana-strokes">
<g>
	<path d="M14,44.75c1.88,1.62,4.68,2.09,8.12,0.62c17.88-7.62,30-11.12,44.88-10.88c12.56,0.21,22.98,7.17,22.87,19.17c-0.18,18.77-24.75,28.71-45.01,32.08"/>
	<path d="M81,18c2.75,1.75,6,5.38,7.75,8.5"/>
	<path d="M87.38,13.12c3.06,1.57,6.68,4.82,8.62,7.62"/>
</g>
</g>
<g class="stroke-number">
	<text transform="matrix(1 0 0 1 9.38 40.38)">1</text>
	<text transform="matrix(1 0 0 1 73.38 17)">2</text>
	<text transform="matrix(1 0 0 1 79.51 11.88)">3</text>
</g>
</svg>
